<svg width="281" height="40" viewBox="0 0 281 40" fill="none" xmlns="http://www.w3.org/2000/svg">
<path d="M36.0362 0H14.6221L0 14.6221L25.3334 39.9555L50.6668 14.6221L36.0362 0ZM32.7189 27.9931H17.9372L8.26431 18.3202L25.3334 1.25114L42.4025 18.3202L32.7296 27.9931H32.7211H32.7189Z" fill="#FDFDFD"/>
<path d="M76.5455 37.8324C84.8748 37.8324 89.5254 33.0322 90.1834 25.5104H85.5926C85.144 30.2059 82.6168 33.5406 76.5605 33.5406C69.7415 33.5406 67.1695 29.3536 67.1695 22.729V16.6727C67.1695 10.0631 69.7415 5.86109 76.5605 5.86109C82.7663 5.86109 85.144 9.39019 85.6973 14.2951H90.2881C89.675 6.56392 84.9795 1.56934 76.5455 1.56934C67.6629 1.56934 62.6085 7.02749 62.6085 16.6727V22.729C62.6085 32.3742 67.6629 37.8324 76.5455 37.8324Z" fill="#FDFDFD"/>
<path d="M100.621 37.3696H103.447V33.3321H99.051V0H94.7593V32.1208C94.7593 35.306 96.6285 37.3696 100.621 37.3696Z" fill="#FDFDFD"/>
<path d="M115.874 37.8179C121.586 37.8179 125.923 34.6925 126.372 29.2344H122.08C121.631 32.6738 118.999 33.7804 115.874 33.7804C112.136 33.7804 109.504 32.27 109.504 27.0212V26.0044H126.417V21.922C126.312 14.5497 121.915 11.1104 115.859 11.1104C109.399 11.1104 105.197 15.0432 105.197 21.922V27.0212C105.197 33.885 109.384 37.8329 115.844 37.8329L115.874 37.8179ZM109.519 22.2211V21.922C109.519 16.7779 112.151 15.0582 115.889 15.0582C119.269 15.0582 122.05 16.7779 122.155 21.922V22.2211H109.534H109.519Z" fill="#FDFDFD"/>
<path d="M131.456 37.3694H135.703V11.5591H131.456V37.3694ZM131.202 6.20558H135.942V1.25586H131.202V6.20558Z" fill="#FDFDFD"/>
<path d="M151.689 33.3318V37.3693H147.86C142.761 37.3693 140.982 34.4832 140.982 30.9541V5.80176H145.273V11.559H151.599V15.5965H145.273V33.3318H151.689Z" fill="#FDFDFD"/>
<path d="M156.264 21.922V27.0212C156.264 33.885 160.452 37.8329 166.927 37.8329C173.402 37.8329 177.529 33.9 177.529 27.0212V21.922C177.529 15.0582 173.387 11.1104 166.927 11.1104C160.466 11.1104 156.264 15.0432 156.264 21.922ZM160.556 27.0212V21.922C160.556 17.1816 163.188 15.1628 166.927 15.1628C170.665 15.1628 173.237 17.1816 173.237 21.922V27.0212C173.237 32.27 170.665 33.7804 166.927 33.7804C163.188 33.7804 160.556 32.27 160.556 27.0212Z" fill="#FDFDFD"/>
<path d="M182.09 37.3693H186.382V21.8173C186.382 17.0171 189.253 15.1479 192.692 15.1479C196.789 15.1479 198.853 17.4657 198.853 21.8173V37.3693H203.145V20.8603C203.145 14.9535 199.361 11.1104 193.649 11.1104C190.21 11.1104 187.742 12.2768 186.382 14.1908V11.559H182.09V37.3693Z" fill="#FDFDFD"/>
<path d="M243.027 37.3694H247.932L237.03 2.01855H228.85L217.844 37.3694H222.749L225.471 28.2326H240.32L243.042 37.3694H243.027ZM226.667 24.1951L232.873 3.28963L239.079 24.1951H226.652H226.667Z" fill="#FDFDFD"/>
<path d="M255.573 37.3699H263.349L271.738 11.5596H267.043L259.461 36.0988L251.879 11.5596H247.184L255.558 37.3699H255.573Z" fill="#FDFDFD"/>
<path d="M276.299 37.3694H280.546V11.5591H276.299V37.3694ZM276.06 6.20558H280.8V1.25586H276.06V6.20558Z" fill="#FDFDFD"/>
</svg>
