<svg width="110" height="19" viewBox="0 0 110 19" fill="none" xmlns="http://www.w3.org/2000/svg">
<path d="M6.9995 19.0003C11.1827 19.0003 13.5184 16.5895 13.8488 12.8119H11.5432C11.3179 15.1701 10.0486 16.8449 7.00701 16.8449C3.58236 16.8449 2.29061 14.742 2.29061 11.415V8.37338C2.29061 5.05388 3.58236 2.94351 7.00701 2.94351C10.1237 2.94351 11.3179 4.71592 11.5957 7.17926H13.9014C13.5935 3.29649 11.2353 0.788086 6.9995 0.788086C2.53845 0.788086 0 3.52931 0 8.37338V11.415C0 16.2591 2.53845 19.0003 6.9995 19.0003Z" fill="#050A0D"/>
<path d="M19.0908 18.768H20.5103V16.7402H18.3023V0H16.1469V16.1319C16.1469 17.7316 17.0856 18.768 19.0908 18.768Z" fill="#050A0D"/>
<path d="M26.7513 18.9933C29.6202 18.9933 31.7982 17.4237 32.0235 14.6824H29.868C29.6427 16.4098 28.3209 16.9655 26.7513 16.9655C24.8738 16.9655 23.552 16.207 23.552 13.5709V13.0602H32.046V11.0099C31.9934 7.30742 29.7854 5.58008 26.7438 5.58008C23.4994 5.58008 21.389 7.55526 21.389 11.0099V13.5709C21.389 17.0181 23.4919 19.0008 26.7363 19.0008L26.7513 18.9933ZM23.5595 11.1602V11.0099C23.5595 8.42644 24.8813 7.56277 26.7588 7.56277C28.4561 7.56277 29.853 8.42644 29.9056 11.0099V11.1602H23.567H23.5595Z" fill="#050A0D"/>
<path d="M34.577 18.768H36.7099V5.80538H34.577V18.768ZM34.4493 3.11673H36.8301V0.630859H34.4493V3.11673Z" fill="#050A0D"/>
<path d="M44.7383 16.7403V18.7681H42.8157C40.2547 18.7681 39.361 17.3186 39.361 15.5462V2.91406H41.5164V5.80549H44.6932V7.83324H41.5164V16.7403H44.7383Z" fill="#050A0D"/>
<path d="M47.0364 11.0099V13.5709C47.0364 17.0181 49.1392 19.0008 52.3911 19.0008C55.6431 19.0008 57.7159 17.0256 57.7159 13.5709V11.0099C57.7159 7.56277 55.6355 5.58008 52.3911 5.58008C49.1467 5.58008 47.0364 7.55526 47.0364 11.0099ZM49.1918 13.5709V11.0099C49.1918 8.62922 50.5136 7.61534 52.3911 7.61534C54.2687 7.61534 55.5604 8.62922 55.5604 11.0099V13.5709C55.5604 16.207 54.2687 16.9655 52.3911 16.9655C50.5136 16.9655 49.1918 16.207 49.1918 13.5709Z" fill="#050A0D"/>
<path d="M60.0066 18.768H62.162V10.9574C62.162 8.54661 63.604 7.60783 65.3313 7.60783C67.3891 7.60783 68.4255 8.77191 68.4255 10.9574V18.768H70.581V10.4767C70.581 7.5102 68.6809 5.58008 65.812 5.58008C64.0846 5.58008 62.8454 6.16587 62.162 7.12718V5.80538H60.0066V18.768Z" fill="#050A0D"/>
<path d="M90.6107 18.7678H93.074L87.5991 1.01367H83.491L77.9635 18.7678H80.4269L81.7937 14.179H89.2513L90.6182 18.7678H90.6107ZM82.3945 12.1513L85.5112 1.65204L88.628 12.1513H82.387H82.3945Z" fill="#050A0D"/>
<path d="M96.9116 18.7683H100.817L105.03 5.80566H102.672L98.8642 18.1299L95.0566 5.80566H92.6984L96.9041 18.7683H96.9116Z" fill="#050A0D"/>
<path d="M107.321 18.768H109.454V5.80538H107.321V18.768ZM107.201 3.11673H109.581V0.630859H107.201V3.11673Z" fill="#050A0D"/>
</svg>
