<svg width="204" height="36" viewBox="0 0 204 36" fill="none" xmlns="http://www.w3.org/2000/svg">
<path d="M12.9991 35.2866C20.7678 35.2866 25.1055 30.8094 25.7192 23.7938H21.4373C21.0189 28.1733 18.6618 31.2836 13.013 31.2836C6.65296 31.2836 4.25399 27.3783 4.25399 21.1996V15.5508C4.25399 9.38605 6.65296 5.4668 13.013 5.4668C18.8012 5.4668 21.0189 8.75841 21.535 13.3332H25.8168C25.245 6.12233 20.8655 1.46387 12.9991 1.46387C4.71426 1.46387 0 6.55471 0 15.5508V21.1996C0 30.1957 4.71426 35.2866 12.9991 35.2866Z" fill="#FDFDFD"/>
<path d="M35.4544 34.8548H38.0905V31.089H33.9899V0H29.987V29.9592C29.987 32.9301 31.7304 34.8548 35.4544 34.8548Z" fill="#FDFDFD"/>
<path d="M49.681 35.2735C55.0089 35.2735 59.0537 32.3585 59.4721 27.2677H55.4692C55.0508 30.4756 52.596 31.5077 49.681 31.5077C46.1941 31.5077 43.7394 30.099 43.7394 25.2034V24.255H59.514V20.4473C59.4164 13.5712 55.3158 10.3633 49.667 10.3633C43.6417 10.3633 39.7225 14.0315 39.7225 20.4473V25.2034C39.7225 31.6053 43.6278 35.2875 49.6531 35.2875L49.681 35.2735ZM43.7533 20.7263V20.4473C43.7533 15.6494 46.2081 14.0454 49.6949 14.0454C52.8471 14.0454 55.4413 15.6494 55.5389 20.4473V20.7263H43.7673H43.7533Z" fill="#FDFDFD"/>
<path d="M64.2145 34.8551H68.1756V10.7817H64.2145V34.8551ZM63.9774 5.7885H68.3988V1.17188H63.9774V5.7885Z" fill="#FDFDFD"/>
<path d="M83.0853 31.0885V34.8543H79.5147C74.7586 34.8543 73.0989 32.1624 73.0989 28.8708V5.41113H77.1018V10.7809H83.0016V14.5467H77.1018V31.0885H83.0853Z" fill="#FDFDFD"/>
<path d="M87.3533 20.4473V25.2034C87.3533 31.6053 91.2586 35.2875 97.2978 35.2875C103.337 35.2875 107.187 31.6193 107.187 25.2034V20.4473C107.187 14.0454 103.323 10.3633 97.2978 10.3633C91.2725 10.3633 87.3533 14.0315 87.3533 20.4473ZM91.3562 25.2034V20.4473C91.3562 16.026 93.811 14.1431 97.2978 14.1431C100.785 14.1431 103.184 16.026 103.184 20.4473V25.2034C103.184 30.099 100.785 31.5077 97.2978 31.5077C93.811 31.5077 91.3562 30.099 91.3562 25.2034Z" fill="#FDFDFD"/>
<path d="M111.441 34.8551H115.444V20.3497C115.444 15.8725 118.122 14.1291 121.33 14.1291C125.151 14.1291 127.076 16.291 127.076 20.3497V34.8551H131.079V19.4571C131.079 13.9478 127.55 10.3633 122.222 10.3633C119.014 10.3633 116.713 11.4512 115.444 13.2365V10.7817H111.441V34.8551Z" fill="#FDFDFD"/>
<path d="M168.277 34.8547H172.852L162.684 1.88281H155.055L144.789 34.8547H149.364L151.903 26.3328H165.753L168.291 34.8547H168.277ZM153.018 22.567L158.807 3.06835L164.595 22.567H153.004H153.018Z" fill="#FDFDFD"/>
<path d="M179.979 34.8546H187.231L195.056 10.7812H190.676L183.605 33.6691L176.534 10.7812H172.154L179.965 34.8546H179.979Z" fill="#FDFDFD"/>
<path d="M199.31 34.8541H203.271V10.7807H199.31V34.8541ZM199.087 5.78752H203.508V1.1709H199.087V5.78752Z" fill="#FDFDFD"/>
</svg>
