<svg width="351" height="38" viewBox="0 0 351 38" fill="none" xmlns="http://www.w3.org/2000/svg">
<path d="M33.6111 0H13.6381L0 13.6381L23.6286 37.2667L47.2571 13.6381L33.6111 0ZM30.5171 26.1093H16.7301L7.70816 17.0873L23.6286 1.16694L39.549 17.0873L30.527 26.1093H30.5191H30.5171Z" fill="#FDFDFD"/>
<path d="M71.3943 35.2866C79.1631 35.2866 83.5008 30.8094 84.1145 23.7938H79.8326C79.4142 28.1733 77.057 31.2836 71.4083 31.2836C65.0482 31.2836 62.6493 27.3783 62.6493 21.1996V15.5508C62.6493 9.38605 65.0482 5.4668 71.4083 5.4668C77.1965 5.4668 79.4142 8.75841 79.9302 13.3332H84.2121C83.6403 6.12233 79.2607 1.46387 71.3943 1.46387C63.1095 1.46387 58.3953 6.55471 58.3953 15.5508V21.1996C58.3953 30.1957 63.1095 35.2866 71.3943 35.2866Z" fill="#FDFDFD"/>
<path d="M93.8498 34.8548H96.4859V31.089H92.3853V0H88.3824V29.9592C88.3824 32.9301 90.1259 34.8548 93.8498 34.8548Z" fill="#FDFDFD"/>
<path d="M108.076 35.2735C113.404 35.2735 117.449 32.3585 117.867 27.2677H113.864C113.446 30.4756 110.991 31.5077 108.076 31.5077C104.589 31.5077 102.135 30.099 102.135 25.2034V24.255H117.909V20.4473C117.812 13.5712 113.711 10.3633 108.062 10.3633C102.037 10.3633 98.1177 14.0315 98.1177 20.4473V25.2034C98.1177 31.6053 102.023 35.2875 108.048 35.2875L108.076 35.2735ZM102.149 20.7263V20.4473C102.149 15.6494 104.603 14.0454 108.09 14.0454C111.242 14.0454 113.837 15.6494 113.934 20.4473V20.7263H102.163H102.149Z" fill="#FDFDFD"/>
<path d="M122.61 34.8541H126.571V10.7807H122.61V34.8541ZM122.372 5.78752H126.794V1.1709H122.372V5.78752Z" fill="#FDFDFD"/>
<path d="M141.481 31.0885V34.8543H137.91C133.154 34.8543 131.494 32.1624 131.494 28.8708V5.41113H135.497V10.7809H141.397V14.5467H135.497V31.0885H141.481Z" fill="#FDFDFD"/>
<path d="M145.749 20.4473V25.2034C145.749 31.6053 149.654 35.2875 155.693 35.2875C161.732 35.2875 165.582 31.6193 165.582 25.2034V20.4473C165.582 14.0454 161.718 10.3633 155.693 10.3633C149.668 10.3633 145.749 14.0315 145.749 20.4473ZM149.751 25.2034V20.4473C149.751 16.026 152.206 14.1431 155.693 14.1431C159.18 14.1431 161.579 16.026 161.579 20.4473V25.2034C161.579 30.099 159.18 31.5077 155.693 31.5077C152.206 31.5077 149.751 30.099 149.751 25.2034Z" fill="#FDFDFD"/>
<path d="M169.836 34.8551H173.839V20.3497C173.839 15.8725 176.517 14.1291 179.725 14.1291C183.546 14.1291 185.471 16.291 185.471 20.3497V34.8551H189.474V19.4571C189.474 13.9478 185.945 10.3633 180.617 10.3633C177.409 10.3633 175.108 11.4512 173.839 13.2365V10.7817H169.836V34.8551Z" fill="#FDFDFD"/>
<path d="M226.672 34.8547H231.247L221.079 1.88281H213.45L203.184 34.8547H207.759L210.298 26.3328H224.148L226.686 34.8547H226.672ZM211.413 22.567L217.202 3.06835L222.99 22.567H211.4H211.413Z" fill="#FDFDFD"/>
<path d="M238.374 34.8546H245.627L253.451 10.7812H249.072L242 33.6691L234.929 10.7812H230.549L238.36 34.8546H238.374Z" fill="#FDFDFD"/>
<path d="M257.705 34.8541H261.666V10.7807H257.705V34.8541ZM257.482 5.78752H261.903V1.1709H257.482V5.78752Z" fill="#FDFDFD"/>
<path d="M277.497 2.70535H281.039C284.094 2.70535 285.642 4.75564 285.642 7.79619V9.10726C285.642 12.1478 284.094 14.1981 281.039 14.1981H277.497V2.70535ZM284.54 9.12121V7.81014C284.54 5.5088 283.592 3.77931 281.053 3.77931H278.599V13.152H281.053C283.578 13.152 284.54 11.4225 284.54 9.12121Z" fill="#FDFDFD"/>
<path d="M287.33 9.21884C287.33 6.98724 288.641 5.75986 290.705 5.75986C292.769 5.75986 294.024 6.87566 294.066 9.21884V10.4323H288.404V10.8786C288.404 12.7057 289.324 13.3473 290.705 13.3473C291.877 13.3473 292.783 12.8731 292.951 11.6039H294.024C293.843 13.3752 292.504 14.3515 290.705 14.3515C288.641 14.3515 287.33 13.1241 287.33 10.8925V9.21884ZM292.978 9.48384V9.21884C292.937 7.40566 291.988 6.72223 290.691 6.72223C289.31 6.72223 288.39 7.40566 288.39 9.21884V9.48384H292.978Z" fill="#FDFDFD"/>
<path d="M295.545 11.5341H296.591C296.591 12.7755 297.553 13.3612 298.878 13.3612C300.203 13.3612 301.026 12.8033 301.026 11.9525C301.026 11.3668 300.663 10.9204 299.729 10.6694L297.804 10.1673C296.591 9.86042 295.893 9.13515 295.893 8.01935C295.893 6.75013 296.939 5.7738 298.808 5.7738C300.677 5.7738 301.905 6.84776 301.905 8.38199H300.887C300.859 7.29408 300.008 6.73618 298.822 6.73618C297.637 6.73618 296.926 7.28014 296.926 8.01935C296.926 8.71673 297.442 9.02357 298.167 9.21884L299.966 9.67911C301.431 10.0557 302.1 10.8089 302.1 11.9386C302.1 13.3334 300.887 14.3515 298.878 14.3515C296.87 14.3515 295.573 13.4031 295.531 11.5202H295.545V11.5341Z" fill="#FDFDFD"/>
<path d="M304.109 2.69141H305.392V4.07221H304.109V2.69141ZM304.206 5.89933H305.252V14.1981H304.206V5.89933Z" fill="#FDFDFD"/>
<path d="M307.665 15.2721H308.711C308.781 16.2763 309.241 17.155 310.817 17.155C312.616 17.155 313.049 16.1229 313.049 14.9234V13.4589C312.505 14.0586 311.71 14.3655 310.748 14.3655C308.683 14.3655 307.386 13.1381 307.386 10.9065V9.24673C307.386 7.01513 308.683 5.78775 310.748 5.78775C311.71 5.78775 312.505 6.0946 313.049 6.69434V5.94117H314.109V14.9652C314.109 16.7086 313.202 18.1592 310.803 18.1592C308.697 18.1592 307.693 16.9318 307.637 15.3139H307.651L307.665 15.2721ZM310.761 13.3473C312.073 13.3473 313.063 12.5941 313.063 10.8786V9.21884C313.063 7.39171 312.073 6.75013 310.761 6.75013C309.45 6.75013 308.474 7.39171 308.474 9.21884V10.8786C308.474 12.5941 309.492 13.3473 310.761 13.3473Z" fill="#FDFDFD"/>
<path d="M316.787 5.89933H317.847V6.98724C318.251 6.28986 319.074 5.75986 320.357 5.75986C322.24 5.75986 323.44 7.00118 323.44 8.8562V14.212H322.366V9.10726C322.366 7.64277 321.585 6.77802 320.134 6.77802C318.837 6.77802 317.847 7.54514 317.847 9.10726V14.212H316.787V5.89933Z" fill="#FDFDFD"/>
<path d="M325.462 10.8786V9.21884C325.462 6.98724 326.773 5.75986 328.837 5.75986C330.902 5.75986 332.157 6.87566 332.199 9.21884V10.4323H326.536V10.8786C326.536 12.7057 327.457 13.3473 328.837 13.3473C330.009 13.3473 330.916 12.8731 331.083 11.6039H332.143C331.962 13.3752 330.623 14.3515 328.823 14.3515C326.759 14.3515 325.448 13.1241 325.448 10.8925L325.462 10.8786ZM331.111 9.48384V9.21884C331.083 7.40566 330.121 6.72223 328.823 6.72223C327.443 6.72223 326.522 7.40566 326.522 9.21884V9.48384H331.111Z" fill="#FDFDFD"/>
<path d="M334.333 5.89933H335.393V7.04303C335.741 6.40144 336.397 5.89933 337.61 5.89933H338.405V6.97329H337.61C336.313 6.97329 335.393 7.71251 335.393 9.45595V14.212H334.333V5.89933Z" fill="#FDFDFD"/>
<path d="M277.497 29.4288C277.497 27.1972 278.794 25.9698 280.858 25.9698C281.82 25.9698 282.615 26.2766 283.159 26.8764V22.2598H284.219V34.422H283.159V33.6688C282.615 34.2686 281.82 34.5754 280.858 34.5754C278.794 34.5754 277.497 33.348 277.497 31.1164V29.4288ZM280.858 33.5572C282.169 33.5572 283.159 32.9156 283.159 31.0885V29.4288C283.159 27.7132 282.169 26.9601 280.858 26.9601C279.477 26.9601 278.571 27.7132 278.571 29.4288V31.0885C278.571 32.9156 279.477 33.5572 280.858 33.5572Z" fill="#FDFDFD"/>
<path d="M286.228 31.0885V29.4288C286.228 27.1972 287.539 25.9698 289.603 25.9698C291.667 25.9698 292.923 27.0856 292.964 29.4288V30.6422H287.316V31.0885C287.316 32.9156 288.236 33.5572 289.617 33.5572C290.789 33.5572 291.695 33.083 291.863 31.8138H292.937C292.755 33.5851 291.416 34.5615 289.617 34.5615C287.553 34.5615 286.242 33.3341 286.242 31.1025L286.228 31.0885ZM291.89 29.6938V29.4288C291.863 27.6156 290.9 26.9322 289.603 26.9322C288.222 26.9322 287.302 27.6156 287.302 29.4288V29.6938H291.89Z" fill="#FDFDFD"/>
<path d="M300.622 23.1942V34.408H299.52V22.9013H301.626L305.155 34.1151L308.683 22.9013H310.789V34.408H309.688V23.1942L306.229 34.408H304.095L300.636 23.1942H300.622Z" fill="#FDFDFD"/>
<path d="M313.146 29.4288C313.146 27.1972 314.444 25.9698 316.508 25.9698C317.484 25.9698 318.265 26.2766 318.809 26.8764V26.1232H319.869V34.422H318.809V33.6688C318.265 34.2686 317.47 34.5754 316.508 34.5754C314.444 34.5754 313.146 33.348 313.146 31.1164V29.4288ZM316.494 33.5572C317.833 33.5572 318.795 32.9156 318.795 31.0885V29.4288C318.795 27.7132 317.833 26.9601 316.494 26.9601C315.155 26.9601 314.206 27.7132 314.206 29.4288V31.0885C314.206 32.9156 315.113 33.5572 316.494 33.5572Z" fill="#FDFDFD"/>
<path d="M322.533 26.0953H323.593V27.239C323.942 26.5974 324.597 26.0953 325.811 26.0953H326.606V27.1693H325.811C324.514 27.1693 323.593 27.9085 323.593 29.6519V34.408H322.533V26.0953Z" fill="#FDFDFD"/>
<path d="M327.498 29.4288C327.498 27.1972 328.81 25.9698 330.874 25.9698C332.771 25.9698 334.124 27.0019 334.221 28.9267H333.161C333.064 27.5738 332.129 26.9601 330.902 26.9601C329.521 26.9601 328.6 27.7132 328.6 29.4288V31.0885C328.6 32.9156 329.521 33.5572 330.902 33.5572C332.143 33.5572 333.105 33.0133 333.161 31.5488H334.221C334.151 33.4875 332.785 34.5615 330.874 34.5615C328.81 34.5615 327.498 33.3341 327.498 31.1025V29.4288Z" fill="#FDFDFD"/>
<path d="M335.714 29.4288C335.714 27.1972 337.011 25.9698 339.075 25.9698C340.037 25.9698 340.832 26.2766 341.376 26.8764V26.1232H342.436V34.422H341.376V33.6688C340.832 34.2686 340.037 34.5754 339.075 34.5754C337.011 34.5754 335.714 33.348 335.714 31.1164V29.4288ZM339.075 33.5572C340.414 33.5572 341.376 32.9156 341.376 31.0885V29.4288C341.376 27.7132 340.414 26.9601 339.075 26.9601C337.736 26.9601 336.788 27.7132 336.788 29.4288V31.0885C336.788 32.9156 337.694 33.5572 339.075 33.5572Z" fill="#FDFDFD"/>
<path d="M344.445 31.7301H345.491C345.491 32.9854 346.453 33.5572 347.778 33.5572C349.103 33.5572 349.926 32.9993 349.926 32.1485C349.926 31.5627 349.563 31.1164 348.629 30.8654L346.704 30.3633C345.491 30.0564 344.793 29.3311 344.793 28.2153C344.793 26.9461 345.839 25.9698 347.708 25.9698C349.577 25.9698 350.805 27.0437 350.805 28.578H349.787C349.759 27.4901 348.908 26.9322 347.722 26.9322C346.537 26.9322 345.826 27.4761 345.826 28.2153C345.826 28.9127 346.342 29.2196 347.067 29.4148L348.866 29.8751C350.331 30.2517 351 31.0048 351 32.1346C351 33.5293 349.787 34.5475 347.778 34.5475C345.77 34.5475 344.473 33.5991 344.445 31.7162H344.459L344.445 31.7301Z" fill="#FDFDFD"/>
</svg>
