<svg width="540" height="58" viewBox="0 0 540 58" fill="none" xmlns="http://www.w3.org/2000/svg">
<path d="M51.7093 0H20.9817L0 20.9817L36.3516 57.3334L72.7033 20.9817L51.7093 0ZM46.9494 40.1682H25.7386L11.8587 26.2882L36.3516 1.79529L60.8446 26.2882L46.9646 40.1682H46.9524H46.9494Z" fill="#050A0D"/>
<path d="M109.837 54.2878C121.789 54.2878 128.463 47.3999 129.407 36.6067H122.819C122.176 43.3444 118.549 48.1295 109.859 48.1295C100.074 48.1295 96.3835 42.1213 96.3835 32.6156V23.9252C96.3835 14.4409 100.074 8.41129 109.859 8.41129C118.764 8.41129 122.176 13.4753 122.97 20.5134H129.557C128.677 9.4198 121.94 2.25293 109.837 2.25293C97.0916 2.25293 89.8389 10.085 89.8389 23.9252V32.6156C89.8389 46.4558 97.0916 54.2878 109.837 54.2878Z" fill="#050A0D"/>
<path d="M144.384 53.6228H148.44V47.8292H142.131V0H135.973V46.0911C135.973 50.6616 138.655 53.6228 144.384 53.6228Z" fill="#050A0D"/>
<path d="M166.271 54.2668C174.468 54.2668 180.691 49.7821 181.334 41.9501H175.176C174.532 46.8854 170.756 48.4732 166.271 48.4732C160.907 48.4732 157.13 46.306 157.13 38.7743V37.3152H181.399V31.4573C181.249 20.8786 174.94 15.9434 166.25 15.9434C156.98 15.9434 150.95 21.5867 150.95 31.4573V38.7743C150.95 48.6234 156.959 54.2883 166.228 54.2883L166.271 54.2668ZM157.152 31.8864V31.4573C157.152 24.0758 160.928 21.6082 166.293 21.6082C171.142 21.6082 175.133 24.0758 175.283 31.4573V31.8864H157.173H157.152Z" fill="#050A0D"/>
<path d="M188.63 53.6221H194.724V16.5861H188.63V53.6221ZM188.265 8.90426H195.067V1.80176H188.265V8.90426Z" fill="#050A0D"/>
<path d="M217.662 47.8288V53.6224H212.169C204.852 53.6224 202.299 49.4811 202.299 44.417V8.3252H208.457V16.5864H217.534V22.38H208.457V47.8288H217.662Z" fill="#050A0D"/>
<path d="M224.229 31.4573V38.7743C224.229 48.6234 230.237 54.2883 239.528 54.2883C248.819 54.2883 254.741 48.6449 254.741 38.7743V31.4573C254.741 21.6082 248.798 15.9434 239.528 15.9434C230.258 15.9434 224.229 21.5867 224.229 31.4573ZM230.387 38.7743V31.4573C230.387 24.6552 234.163 21.7584 239.528 21.7584C244.892 21.7584 248.583 24.6552 248.583 31.4573V38.7743C248.583 46.306 244.892 48.4732 239.528 48.4732C234.163 48.4732 230.387 46.306 230.387 38.7743Z" fill="#050A0D"/>
<path d="M261.286 53.6231H267.444V31.3071C267.444 24.4192 271.564 21.7369 276.499 21.7369C282.379 21.7369 285.34 25.0629 285.34 31.3071V53.6231H291.498V29.9338C291.498 21.458 286.07 15.9434 277.873 15.9434C272.937 15.9434 269.397 17.6171 267.444 20.3636V16.5871H261.286V53.6231Z" fill="#050A0D"/>
<path d="M348.726 53.6225H355.764L340.122 2.89648H328.384L312.591 53.6225H319.63L323.535 40.5118H344.842L348.748 53.6225H348.726ZM325.251 34.7183L334.156 4.72039L343.061 34.7183H325.23H325.251Z" fill="#050A0D"/>
<path d="M366.729 53.6229H377.887L389.925 16.5869H383.187L372.308 51.799L361.429 16.5869H354.691L366.708 53.6229H366.729Z" fill="#050A0D"/>
<path d="M396.469 53.6221H402.563V16.5861H396.469V53.6221ZM396.126 8.90426H402.928V1.80176H396.126V8.90426Z" fill="#050A0D"/>
<path d="M426.918 4.16208H432.368C437.067 4.16208 439.449 7.31636 439.449 11.9941V14.0112C439.449 18.6889 437.067 21.8432 432.368 21.8432H426.918V4.16208ZM437.754 14.0326V12.0156C437.754 8.47508 436.295 5.81433 432.39 5.81433H428.613V20.2339H432.39C436.274 20.2339 437.754 17.5731 437.754 14.0326Z" fill="#050A0D"/>
<path d="M442.046 14.1828C442.046 10.7496 444.063 8.86132 447.238 8.86132C450.414 8.86132 452.345 10.5779 452.41 14.1828V16.0496H443.698V16.7363C443.698 19.5473 445.114 20.5343 447.238 20.5343C449.041 20.5343 450.436 19.8047 450.693 17.8521H452.345C452.066 20.5772 450.006 22.0793 447.238 22.0793C444.063 22.0793 442.046 20.191 442.046 16.7578V14.1828ZM450.736 14.5905V14.1828C450.672 11.3933 449.212 10.3419 447.217 10.3419C445.093 10.3419 443.676 11.3933 443.676 14.1828V14.5905H450.736Z" fill="#050A0D"/>
<path d="M454.684 17.7448H456.294C456.294 19.6545 457.774 20.5558 459.813 20.5558C461.851 20.5558 463.117 19.6975 463.117 18.3885C463.117 17.4873 462.559 16.8007 461.122 16.4144L458.16 15.642C456.294 15.1699 455.221 14.0541 455.221 12.3375C455.221 10.3848 456.83 8.88278 459.705 8.88278C462.581 8.88278 464.469 10.535 464.469 12.8954H462.903C462.86 11.2217 461.551 10.3634 459.727 10.3634C457.903 10.3634 456.809 11.2002 456.809 12.3375C456.809 13.4104 457.602 13.8824 458.718 14.1828L461.486 14.8909C463.739 15.4703 464.769 16.629 464.769 18.3671C464.769 20.5128 462.903 22.0793 459.813 22.0793C456.723 22.0793 454.727 20.6201 454.663 17.7233H454.684V17.7448Z" fill="#050A0D"/>
<path d="M467.859 4.14062H469.833V6.26494H467.859V4.14062ZM468.009 9.0759H469.619V21.8432H468.009V9.0759Z" fill="#050A0D"/>
<path d="M473.331 23.4955H474.94C475.048 25.0404 475.756 26.3923 478.18 26.3923C480.948 26.3923 481.614 24.8044 481.614 22.959V20.706C480.777 21.6286 479.554 22.1007 478.073 22.1007C474.897 22.1007 472.902 20.2124 472.902 16.7792V14.2257C472.902 10.7925 474.897 8.90423 478.073 8.90423C479.554 8.90423 480.777 9.3763 481.614 10.299V9.14027H483.244V23.0234C483.244 25.7056 481.85 27.9372 478.159 27.9372C474.919 27.9372 473.374 26.0489 473.288 23.5598H473.31L473.331 23.4955ZM478.095 20.5343C480.112 20.5343 481.635 19.3756 481.635 16.7363V14.1828C481.635 11.3719 480.112 10.3848 478.095 10.3848C476.078 10.3848 474.575 11.3719 474.575 14.1828V16.7363C474.575 19.3756 476.142 20.5343 478.095 20.5343Z" fill="#050A0D"/>
<path d="M487.364 9.0759H488.995V10.7496C489.617 9.67671 490.883 8.86132 492.857 8.86132C495.754 8.86132 497.6 10.7711 497.6 13.6249V21.8647H495.947V14.0112C495.947 11.7581 494.746 10.4277 492.514 10.4277C490.519 10.4277 488.995 11.6079 488.995 14.0112V21.8647H487.364V9.0759Z" fill="#050A0D"/>
<path d="M500.711 16.7363V14.1828C500.711 10.7496 502.728 8.86132 505.904 8.86132C509.079 8.86132 511.011 10.5779 511.075 14.1828V16.0496H502.363V16.7363C502.363 19.5473 503.779 20.5343 505.904 20.5343C507.706 20.5343 509.101 19.8047 509.358 17.8521H510.989C510.71 20.5772 508.65 22.0793 505.882 22.0793C502.707 22.0793 500.69 20.191 500.69 16.7578L500.711 16.7363ZM509.401 14.5905V14.1828C509.358 11.3933 507.878 10.3419 505.882 10.3419C503.758 10.3419 502.342 11.3933 502.342 14.1828V14.5905H509.401Z" fill="#050A0D"/>
<path d="M514.358 9.0759H515.989V10.8354C516.525 9.84837 517.534 9.0759 519.401 9.0759H520.624V10.7281H519.401C517.405 10.7281 515.989 11.8654 515.989 14.5476V21.8647H514.358V9.0759Z" fill="#050A0D"/>
<path d="M426.918 45.275C426.918 41.8418 428.914 39.9535 432.089 39.9535C433.57 39.9535 434.793 40.4256 435.63 41.3483V34.2458H437.261V52.9569H435.63V51.7982C434.793 52.7209 433.57 53.1929 432.089 53.1929C428.914 53.1929 426.918 51.3046 426.918 47.8714V45.275ZM432.089 51.6265C434.106 51.6265 435.63 50.6395 435.63 47.8285V45.275C435.63 42.6357 434.106 41.477 432.089 41.477C429.965 41.477 428.57 42.6357 428.57 45.275V47.8285C428.57 50.6395 429.965 51.6265 432.089 51.6265Z" fill="#050A0D"/>
<path d="M440.35 47.8285V45.275C440.35 41.8418 442.367 39.9535 445.543 39.9535C448.719 39.9535 450.65 41.6701 450.715 45.275V47.1419H442.024V47.8285C442.024 50.6395 443.44 51.6265 445.565 51.6265C447.367 51.6265 448.762 50.8969 449.019 48.9443H450.672C450.393 51.6694 448.333 53.1715 445.565 53.1715C442.389 53.1715 440.372 51.2832 440.372 47.85L440.35 47.8285ZM449.062 45.6827V45.275C449.019 42.4855 447.539 41.4341 445.543 41.4341C443.419 41.4341 442.003 42.4855 442.003 45.275V45.6827H449.062Z" fill="#050A0D"/>
<path d="M462.495 35.6834V52.9354H460.8V35.2328H464.04L469.469 52.4848L474.897 35.2328H478.137V52.9354H476.442V35.6834L471.121 52.9354H467.838L462.516 35.6834H462.495Z" fill="#050A0D"/>
<path d="M481.764 45.275C481.764 41.8418 483.759 39.9535 486.935 39.9535C488.437 39.9535 489.639 40.4256 490.476 41.3483V40.1896H492.106V52.9569H490.476V51.7982C489.639 52.7209 488.416 53.1929 486.935 53.1929C483.759 53.1929 481.764 51.3046 481.764 47.8714V45.275ZM486.914 51.6265C488.974 51.6265 490.454 50.6395 490.454 47.8285V45.275C490.454 42.6357 488.974 41.477 486.914 41.477C484.854 41.477 483.395 42.6357 483.395 45.275V47.8285C483.395 50.6395 484.789 51.6265 486.914 51.6265Z" fill="#050A0D"/>
<path d="M496.205 40.1466H497.836V41.9062C498.372 40.9191 499.381 40.1466 501.247 40.1466H502.471V41.7989H501.247C499.252 41.7989 497.836 42.9361 497.836 45.6184V52.9354H496.205V40.1466Z" fill="#050A0D"/>
<path d="M503.844 45.275C503.844 41.8418 505.861 39.9535 509.037 39.9535C511.955 39.9535 514.036 41.5414 514.186 44.5026H512.556C512.405 42.4212 510.968 41.477 509.079 41.477C506.955 41.477 505.539 42.6357 505.539 45.275V47.8285C505.539 50.6395 506.955 51.6265 509.079 51.6265C510.989 51.6265 512.47 50.7897 512.556 48.5366H514.186C514.079 51.5192 511.976 53.1715 509.037 53.1715C505.861 53.1715 503.844 51.2832 503.844 47.85V45.275Z" fill="#050A0D"/>
<path d="M516.482 45.275C516.482 41.8418 518.478 39.9535 521.654 39.9535C523.134 39.9535 524.357 40.4256 525.194 41.3483V40.1896H526.825V52.9569H525.194V51.7982C524.357 52.7209 523.134 53.1929 521.654 53.1929C518.478 53.1929 516.482 51.3046 516.482 47.8714V45.275ZM521.654 51.6265C523.714 51.6265 525.194 50.6395 525.194 47.8285V45.275C525.194 42.6357 523.714 41.477 521.654 41.477C519.594 41.477 518.135 42.6357 518.135 45.275V47.8285C518.135 50.6395 519.529 51.6265 521.654 51.6265Z" fill="#050A0D"/>
<path d="M529.915 48.8156H531.524C531.524 50.7467 533.005 51.6265 535.043 51.6265C537.082 51.6265 538.348 50.7682 538.348 49.4593C538.348 48.5581 537.79 47.8714 536.352 47.4852L533.391 46.7127C531.524 46.2406 530.451 45.1248 530.451 43.4082C530.451 41.4556 532.061 39.9535 534.936 39.9535C537.811 39.9535 539.7 41.6058 539.7 43.9661H538.133C538.09 42.2924 536.781 41.4341 534.957 41.4341C533.134 41.4341 532.039 42.271 532.039 43.4082C532.039 44.4811 532.833 44.9532 533.949 45.2536L536.717 45.9617C538.97 46.541 540 47.6997 540 49.4378C540 51.5836 538.133 53.15 535.043 53.15C531.953 53.15 529.958 51.6909 529.915 48.7941H529.936L529.915 48.8156Z" fill="#050A0D"/>
</svg>
