<svg width="189" height="21" viewBox="0 0 189 21" fill="none" xmlns="http://www.w3.org/2000/svg">
<path d="M18.0983 0H7.3436L0 7.34361L12.7231 20.0667L25.4461 7.34361L18.0983 0ZM16.4323 14.0589H9.00853L4.15055 9.20088L12.7231 0.628353L21.2956 9.20088L16.4376 14.0589H16.4333H16.4323Z" fill="#050A0D"/>
<path d="M38.4431 19.0003C42.6263 19.0003 44.962 16.5895 45.2924 12.8119H42.9868C42.7615 15.1701 41.4922 16.8449 38.4506 16.8449C35.026 16.8449 33.7342 14.742 33.7342 11.415V8.37338C33.7342 5.05388 35.026 2.94351 38.4506 2.94351C41.5673 2.94351 42.7615 4.71592 43.0393 7.17926H45.345C45.0371 3.29649 42.6789 0.788086 38.4431 0.788086C33.982 0.788086 31.4436 3.52931 31.4436 8.37338V11.415C31.4436 16.2591 33.982 19.0003 38.4431 19.0003Z" fill="#050A0D"/>
<path d="M50.5345 18.768H51.9539V16.7402H49.7459V0H47.5905V16.1319C47.5905 17.7316 48.5293 18.768 50.5345 18.768Z" fill="#050A0D"/>
<path d="M58.1949 18.9933C61.0638 18.9933 63.2418 17.4237 63.4671 14.6824H61.3117C61.0863 16.4098 59.7646 16.9655 58.1949 16.9655C56.3174 16.9655 54.9956 16.207 54.9956 13.5709V13.0602H63.4896V11.0099C63.437 7.30742 61.229 5.58008 58.1874 5.58008C54.943 5.58008 52.8326 7.55526 52.8326 11.0099V13.5709C52.8326 17.0181 54.9355 19.0008 58.1799 19.0008L58.1949 18.9933ZM55.0031 11.1602V11.0099C55.0031 8.42644 56.3249 7.56277 58.2024 7.56277C59.8997 7.56277 61.2966 8.42644 61.3492 11.0099V11.1602H55.0106H55.0031Z" fill="#050A0D"/>
<path d="M66.0206 18.768H68.1535V5.80538H66.0206V18.768ZM65.8929 3.11673H68.2736V0.630859H65.8929V3.11673Z" fill="#050A0D"/>
<path d="M76.1819 16.7403V18.7681H74.2593C71.6983 18.7681 70.8046 17.3186 70.8046 15.5462V2.91406H72.96V5.80549H76.1368V7.83324H72.96V16.7403H76.1819Z" fill="#050A0D"/>
<path d="M78.48 11.0099V13.5709C78.48 17.0181 80.5828 19.0008 83.8347 19.0008C87.0867 19.0008 89.1595 17.0256 89.1595 13.5709V11.0099C89.1595 7.56277 87.0792 5.58008 83.8347 5.58008C80.5903 5.58008 78.48 7.55526 78.48 11.0099ZM80.6354 13.5709V11.0099C80.6354 8.62922 81.9572 7.61534 83.8347 7.61534C85.7123 7.61534 87.0041 8.62922 87.0041 11.0099V13.5709C87.0041 16.207 85.7123 16.9655 83.8347 16.9655C81.9572 16.9655 80.6354 16.207 80.6354 13.5709Z" fill="#050A0D"/>
<path d="M91.4501 18.768H93.6055V10.9574C93.6055 8.54661 95.0475 7.60783 96.7748 7.60783C98.8326 7.60783 99.869 8.77191 99.869 10.9574V18.768H102.024V10.4767C102.024 7.5102 100.124 5.58008 97.2555 5.58008C95.5281 5.58008 94.2889 6.16587 93.6055 7.12718V5.80538H91.4501V18.768Z" fill="#050A0D"/>
<path d="M122.054 18.7678H124.518L119.043 1.01367H114.934L109.407 18.7678H111.87L113.237 14.179H120.695L122.062 18.7678H122.054ZM113.838 12.1513L116.955 1.65204L120.071 12.1513H113.83H113.838Z" fill="#050A0D"/>
<path d="M128.355 18.7683H132.26L136.474 5.80566H134.116L130.308 18.1299L126.5 5.80566H124.142L128.348 18.7683H128.355Z" fill="#050A0D"/>
<path d="M138.764 18.768H140.897V5.80538H138.764V18.768ZM138.644 3.11673H141.025V0.630859H138.644V3.11673Z" fill="#050A0D"/>
<path d="M149.421 1.45673H151.329C152.974 1.45673 153.807 2.56073 153.807 4.19795V4.90391C153.807 6.54113 152.974 7.64513 151.329 7.64513H149.421V1.45673ZM153.214 4.91142V4.20546C153.214 2.96628 152.703 2.03501 151.336 2.03501H150.015V7.08186H151.336C152.696 7.08186 153.214 6.1506 153.214 4.91142Z" fill="#050A0D"/>
<path d="M154.716 4.96399C154.716 3.76236 155.422 3.10146 156.533 3.10146C157.645 3.10146 158.321 3.70228 158.343 4.96399V5.61738H155.294V5.8577C155.294 6.84154 155.79 7.18701 156.533 7.18701C157.164 7.18701 157.652 6.93166 157.743 6.24823H158.321C158.223 7.20203 157.502 7.72774 156.533 7.72774C155.422 7.72774 154.716 7.06684 154.716 5.86521V4.96399ZM157.758 5.10668V4.96399C157.735 3.98766 157.224 3.61966 156.526 3.61966C155.782 3.61966 155.287 3.98766 155.287 4.96399V5.10668H157.758Z" fill="#050A0D"/>
<path d="M159.139 6.21068H159.703C159.703 6.87909 160.221 7.19452 160.934 7.19452C161.648 7.19452 162.091 6.89411 162.091 6.43599C162.091 6.12056 161.896 5.88023 161.393 5.74505L160.356 5.47468C159.703 5.30946 159.327 4.91893 159.327 4.31811C159.327 3.63469 159.89 3.10897 160.897 3.10897C161.903 3.10897 162.564 3.68726 162.564 4.51338H162.016C162.001 3.92758 161.543 3.62718 160.904 3.62718C160.266 3.62718 159.883 3.92007 159.883 4.31811C159.883 4.69362 160.161 4.85885 160.551 4.96399L161.52 5.21183C162.309 5.4146 162.669 5.82015 162.669 6.42848C162.669 7.1795 162.016 7.72774 160.934 7.72774C159.853 7.72774 159.154 7.21705 159.132 6.20317H159.139V6.21068Z" fill="#050A0D"/>
<path d="M163.751 1.44922H164.442V2.19273H163.751V1.44922ZM163.803 3.17656H164.367V7.64513H163.803V3.17656Z" fill="#050A0D"/>
<path d="M165.666 8.22341H166.229C166.267 8.76415 166.514 9.23729 167.363 9.23729C168.332 9.23729 168.565 8.68154 168.565 8.03566V7.24709C168.272 7.57003 167.844 7.73525 167.326 7.73525C166.214 7.73525 165.516 7.07435 165.516 5.87272V4.97901C165.516 3.77738 166.214 3.11648 167.326 3.11648C167.844 3.11648 168.272 3.28171 168.565 3.60464V3.19909H169.136V8.05819C169.136 8.99696 168.647 9.77802 167.356 9.77802C166.222 9.77802 165.681 9.11713 165.651 8.24594H165.658L165.666 8.22341ZM167.333 7.18701C168.039 7.18701 168.572 6.78146 168.572 5.8577V4.96399C168.572 3.98015 168.039 3.63469 167.333 3.63469C166.627 3.63469 166.101 3.98015 166.101 4.96399V5.8577C166.101 6.78146 166.65 7.18701 167.333 7.18701Z" fill="#050A0D"/>
<path d="M170.577 3.17656H171.148V3.76236C171.366 3.38685 171.809 3.10146 172.5 3.10146C173.514 3.10146 174.16 3.76987 174.16 4.76872V7.65264H173.582V4.90391C173.582 4.11534 173.161 3.64971 172.38 3.64971C171.681 3.64971 171.148 4.06277 171.148 4.90391V7.65264H170.577V3.17656Z" fill="#050A0D"/>
<path d="M175.249 5.8577V4.96399C175.249 3.76236 175.955 3.10146 177.066 3.10146C178.178 3.10146 178.854 3.70228 178.876 4.96399V5.61738H175.827V5.8577C175.827 6.84154 176.323 7.18701 177.066 7.18701C177.697 7.18701 178.185 6.93166 178.275 6.24823H178.846C178.749 7.20203 178.028 7.72774 177.059 7.72774C175.947 7.72774 175.241 7.06684 175.241 5.86521L175.249 5.8577ZM178.29 5.10668V4.96399C178.275 3.98766 177.757 3.61966 177.059 3.61966C176.315 3.61966 175.82 3.98766 175.82 4.96399V5.10668H178.29Z" fill="#050A0D"/>
<path d="M180.025 3.17656H180.596V3.7924C180.784 3.44693 181.137 3.17656 181.79 3.17656H182.218V3.75485H181.79C181.092 3.75485 180.596 4.15289 180.596 5.09166V7.65264H180.025V3.17656Z" fill="#050A0D"/>
<path d="M149.421 15.8463C149.421 14.6446 150.12 13.9837 151.231 13.9837C151.749 13.9837 152.178 14.149 152.47 14.4719V11.986H153.041V18.5349H152.47V18.1294C152.178 18.4523 151.749 18.6175 151.231 18.6175C150.12 18.6175 149.421 17.9566 149.421 16.755V15.8463ZM151.231 18.0693C151.937 18.0693 152.47 17.7238 152.47 16.74V15.8463C152.47 14.9225 151.937 14.517 151.231 14.517C150.488 14.517 150 14.9225 150 15.8463V16.74C150 17.7238 150.488 18.0693 151.231 18.0693Z" fill="#050A0D"/>
<path d="M154.123 16.74V15.8463C154.123 14.6446 154.829 13.9837 155.94 13.9837C157.052 13.9837 157.728 14.5845 157.75 15.8463V16.4996H154.708V16.74C154.708 17.7238 155.204 18.0693 155.948 18.0693C156.578 18.0693 157.067 17.8139 157.157 17.1305H157.735C157.637 18.0843 156.916 18.61 155.948 18.61C154.836 18.61 154.13 17.9491 154.13 16.7475L154.123 16.74ZM157.172 15.989V15.8463C157.157 14.8699 156.639 14.5019 155.94 14.5019C155.197 14.5019 154.701 14.8699 154.701 15.8463V15.989H157.172Z" fill="#050A0D"/>
<path d="M161.873 12.4892V18.5274H161.28V12.3315H162.414L164.314 18.3697L166.214 12.3315H167.348V18.5274H166.755V12.4892L164.892 18.5274H163.743L161.881 12.4892H161.873Z" fill="#050A0D"/>
<path d="M168.617 15.8463C168.617 14.6446 169.316 13.9837 170.427 13.9837C170.953 13.9837 171.374 14.149 171.666 14.4719V14.0663H172.237V18.5349H171.666V18.1294C171.374 18.4523 170.945 18.6175 170.427 18.6175C169.316 18.6175 168.617 17.9566 168.617 16.755V15.8463ZM170.42 18.0693C171.141 18.0693 171.659 17.7238 171.659 16.74V15.8463C171.659 14.9225 171.141 14.517 170.42 14.517C169.699 14.517 169.188 14.9225 169.188 15.8463V16.74C169.188 17.7238 169.676 18.0693 170.42 18.0693Z" fill="#050A0D"/>
<path d="M173.672 14.0513H174.242V14.6672C174.43 14.3217 174.783 14.0513 175.437 14.0513H175.865V14.6296H175.437C174.738 14.6296 174.242 15.0276 174.242 15.9664V18.5274H173.672V14.0513Z" fill="#050A0D"/>
<path d="M176.345 15.8463C176.345 14.6446 177.051 13.9837 178.163 13.9837C179.184 13.9837 179.913 14.5395 179.965 15.5759H179.394C179.342 14.8474 178.839 14.517 178.178 14.517C177.434 14.517 176.939 14.9225 176.939 15.8463V16.74C176.939 17.7238 177.434 18.0693 178.178 18.0693C178.846 18.0693 179.364 17.7764 179.394 16.9878H179.965C179.928 18.0317 179.192 18.61 178.163 18.61C177.051 18.61 176.345 17.9491 176.345 16.7475V15.8463Z" fill="#050A0D"/>
<path d="M180.769 15.8463C180.769 14.6446 181.467 13.9837 182.579 13.9837C183.097 13.9837 183.525 14.149 183.818 14.4719V14.0663H184.389V18.5349H183.818V18.1294C183.525 18.4523 183.097 18.6175 182.579 18.6175C181.467 18.6175 180.769 17.9566 180.769 16.755V15.8463ZM182.579 18.0693C183.3 18.0693 183.818 17.7238 183.818 16.74V15.8463C183.818 14.9225 183.3 14.517 182.579 14.517C181.858 14.517 181.347 14.9225 181.347 15.8463V16.74C181.347 17.7238 181.835 18.0693 182.579 18.0693Z" fill="#050A0D"/>
<path d="M185.47 17.0854H186.033C186.033 17.7614 186.552 18.0693 187.265 18.0693C187.979 18.0693 188.422 17.7689 188.422 17.3107C188.422 16.9953 188.226 16.755 187.723 16.6198L186.687 16.3494C186.033 16.1842 185.658 15.7937 185.658 15.1929C185.658 14.5094 186.221 13.9837 187.228 13.9837C188.234 13.9837 188.895 14.562 188.895 15.3881H188.347C188.332 14.8023 187.873 14.5019 187.235 14.5019C186.597 14.5019 186.214 14.7948 186.214 15.1929C186.214 15.5684 186.492 15.7336 186.882 15.8388L187.851 16.0866C188.639 16.2894 189 16.6949 189 17.3032C189 18.0543 188.347 18.6025 187.265 18.6025C186.184 18.6025 185.485 18.0918 185.47 17.0779H185.478L185.47 17.0854Z" fill="#050A0D"/>
</svg>
