<svg width="152" height="22" viewBox="0 0 152 22" fill="none" xmlns="http://www.w3.org/2000/svg">
<path d="M19.4041 0H7.87346L0 7.87346L13.6411 21.5145L27.2821 7.87346L19.4041 0ZM17.6179 15.0732H9.6585L4.45001 9.86474L13.6411 0.673689L22.8321 9.86474L17.6236 15.0732H17.619H17.6179Z" fill="#FDFDFD"/>
<path d="M41.2168 20.371C45.7018 20.371 48.206 17.7863 48.5603 13.7361H46.0883C45.8467 16.2644 44.4859 18.06 41.2249 18.06C37.5531 18.06 36.1682 15.8055 36.1682 12.2384V8.97731C36.1682 5.4183 37.5531 3.15567 41.2249 3.15567C44.5665 3.15567 45.8467 5.05596 46.1447 7.69703H48.6167C48.2865 3.53412 45.7582 0.844727 41.2168 0.844727C36.4339 0.844727 33.7123 3.78373 33.7123 8.97731V12.2384C33.7123 17.432 36.4339 20.371 41.2168 20.371Z" fill="#FDFDFD"/>
<path d="M54.1806 20.1221H55.7025V17.9481H53.3352V0H51.0242V17.2958C51.0242 19.0109 52.0307 20.1221 54.1806 20.1221Z" fill="#FDFDFD"/>
<path d="M62.3937 20.3634C65.4696 20.3634 67.8047 18.6805 68.0463 15.7415H65.7353C65.4938 17.5935 64.0766 18.1894 62.3937 18.1894C60.3807 18.1894 58.9636 17.3761 58.9636 14.5498V14.0023H68.0704V11.8041C68.0141 7.8344 65.6468 5.98242 62.3857 5.98242C58.9072 5.98242 56.6446 8.10012 56.6446 11.8041V14.5498C56.6446 18.2457 58.8991 20.3715 62.3776 20.3715L62.3937 20.3634ZM58.9716 11.9651V11.8041C58.9716 9.03415 60.3888 8.10817 62.4018 8.10817C64.2216 8.10817 65.7192 9.03415 65.7756 11.8041V11.9651H58.9797H58.9716Z" fill="#FDFDFD"/>
<path d="M70.784 20.1215H73.0708V6.22365H70.784V20.1215ZM70.6471 3.34102H73.1996V0.675781H70.6471V3.34102Z" fill="#FDFDFD"/>
<path d="M81.6785 17.9479V20.1219H79.6171C76.8714 20.1219 75.9132 18.5679 75.9132 16.6676V3.12402H78.2241V6.22407H81.6301V8.39813H78.2241V17.9479H81.6785Z" fill="#FDFDFD"/>
<path d="M84.1424 11.8041V14.5498C84.1424 18.2457 86.397 20.3715 89.8835 20.3715C93.3701 20.3715 95.5924 18.2538 95.5924 14.5498V11.8041C95.5924 8.10817 93.362 5.98242 89.8835 5.98242C86.405 5.98242 84.1424 8.10012 84.1424 11.8041ZM86.4533 14.5498V11.8041C86.4533 9.25156 87.8705 8.16453 89.8835 8.16453C91.8965 8.16453 93.2815 9.25156 93.2815 11.8041V14.5498C93.2815 17.3761 91.8965 18.1894 89.8835 18.1894C87.8705 18.1894 86.4533 17.3761 86.4533 14.5498Z" fill="#FDFDFD"/>
<path d="M98.0483 20.1218H100.359V11.7477C100.359 9.16299 101.905 8.15648 103.757 8.15648C105.963 8.15648 107.075 9.40455 107.075 11.7477V20.1218H109.386V11.2324C109.386 8.0518 107.348 5.98242 104.273 5.98242C102.421 5.98242 101.092 6.61048 100.359 7.64115V6.22398H98.0483V20.1218Z" fill="#FDFDFD"/>
<path d="M130.861 20.122H133.502L127.632 1.08691H123.227L117.301 20.122H119.942L121.407 15.2022H129.403L130.869 20.122H130.861ZM122.052 13.0281L125.393 1.77134L128.735 13.0281H122.044H122.052Z" fill="#FDFDFD"/>
<path d="M137.616 20.1215H141.803L146.32 6.22363H143.792L139.71 19.4371L135.627 6.22363H133.099L137.608 20.1215H137.616Z" fill="#FDFDFD"/>
<path d="M148.776 20.1215H151.063V6.22365H148.776V20.1215ZM148.647 3.34102H151.2V0.675781H148.647V3.34102Z" fill="#FDFDFD"/>
</svg>
