<svg width="432" height="62" viewBox="0 0 432 62" fill="none" xmlns="http://www.w3.org/2000/svg">
<path d="M55.4402 0H22.4956L0 22.4956L38.9745 61.47L77.9489 22.4956L55.4402 0ZM50.3368 43.0664H27.5957L12.7143 28.185L38.9745 1.92483L65.2346 28.185L50.3532 43.0664H50.3401H50.3368Z" fill="#050A0D"/>
<path d="M117.762 58.2044C130.577 58.2044 137.731 50.8195 138.744 39.2475H131.681C130.991 46.4713 127.103 51.6017 117.785 51.6017C107.295 51.6017 103.338 45.16 103.338 34.9684V25.651C103.338 15.4824 107.295 9.01773 117.785 9.01773C127.333 9.01773 130.991 14.4471 131.842 21.9931H138.905C137.961 10.099 130.738 2.41504 117.762 2.41504C104.097 2.41504 96.3208 10.8122 96.3208 25.651V34.9684C96.3208 49.8072 104.097 58.2044 117.762 58.2044Z" fill="#050A0D"/>
<path d="M154.802 57.4918H159.15V51.2802H152.386V0H145.784V49.4167C145.784 54.3169 148.659 57.4918 154.802 57.4918Z" fill="#050A0D"/>
<path d="M178.268 58.1823C187.056 58.1823 193.728 53.3741 194.418 44.9769H187.815C187.125 50.2683 183.076 51.9707 178.268 51.9707C172.516 51.9707 168.467 49.6471 168.467 41.572V40.0076H194.487V33.727C194.326 22.3851 187.562 17.0938 178.245 17.0938C168.306 17.0938 161.842 23.1443 161.842 33.727V41.572C161.842 52.1317 168.283 58.2053 178.222 58.2053L178.268 58.1823ZM168.49 34.1871V33.727C168.49 25.813 172.539 23.1673 178.291 23.1673C183.49 23.1673 187.769 25.813 187.93 33.727V34.1871H168.513H168.49Z" fill="#050A0D"/>
<path d="M202.24 57.4919H208.774V17.7837H202.24V57.4919ZM201.849 9.54757H209.142V1.93262H201.849V9.54757Z" fill="#050A0D"/>
<path d="M233.367 51.2806V57.4922H227.477C219.632 57.4922 216.895 53.0521 216.895 47.6227V8.92676H223.497V17.784H233.229V23.9956H223.497V51.2806H233.367Z" fill="#050A0D"/>
<path d="M240.407 33.727V41.572C240.407 52.1317 246.848 58.2053 256.81 58.2053C266.772 58.2053 273.121 52.1547 273.121 41.572V33.727C273.121 23.1673 266.749 17.0938 256.81 17.0938C246.871 17.0938 240.407 23.1443 240.407 33.727ZM247.009 41.572V33.727C247.009 26.4341 251.059 23.3284 256.81 23.3284C262.561 23.3284 266.518 26.4341 266.518 33.727V41.572C266.518 49.6471 262.561 51.9707 256.81 51.9707C251.059 51.9707 247.009 49.6471 247.009 41.572Z" fill="#050A0D"/>
<path d="M280.138 57.4921H286.741V33.566C286.741 26.1811 291.158 23.3053 296.449 23.3053C302.753 23.3053 305.928 26.8713 305.928 33.566V57.4921H312.53V32.0936C312.53 23.0063 306.71 17.0938 297.922 17.0938C292.63 17.0938 288.834 18.8882 286.741 21.833V17.7839H280.138V57.4921Z" fill="#050A0D"/>
<path d="M373.887 57.4924H381.433L364.662 3.10645H352.078L335.145 57.4924H342.691L346.878 43.4358H369.723L373.91 57.4924H373.887ZM348.719 37.2242L358.266 5.06195L367.814 37.2242H348.696H348.719Z" fill="#050A0D"/>
<path d="M393.189 57.4924H405.152L418.058 17.7842H410.835L399.171 55.5369L387.507 17.7842H380.283L393.166 57.4924H393.189Z" fill="#050A0D"/>
<path d="M425.075 57.4919H431.609V17.7837H425.075V57.4919ZM424.707 9.54757H432V1.93262H424.707V9.54757Z" fill="#050A0D"/>
</svg>
