<svg width="314" height="55" viewBox="0 0 314 55" fill="none" xmlns="http://www.w3.org/2000/svg">
<path d="M19.9986 54.2878C31.9505 54.2878 38.6239 47.3999 39.568 36.6067H32.9805C32.3368 43.3444 28.7104 48.1295 20.02 48.1295C10.2353 48.1295 6.5446 42.1213 6.5446 32.6156V23.9252C6.5446 14.4409 10.2353 8.41129 20.02 8.41129C28.925 8.41129 32.3368 13.4753 33.1307 20.5134H39.7182C38.8384 9.4198 32.1007 2.25293 19.9986 2.25293C7.2527 2.25293 0 10.085 0 23.9252V32.6156C0 46.4558 7.2527 54.2878 19.9986 54.2878Z" fill="#050A0D"/>
<path d="M54.5452 53.6228H58.6007V47.8292H52.2921V0H46.1338V46.0911C46.1338 50.6616 48.816 53.6228 54.5452 53.6228Z" fill="#050A0D"/>
<path d="M76.4323 54.2668C84.6291 54.2668 90.8519 49.7821 91.4956 41.9501H85.3373C84.6935 46.8854 80.917 48.4732 76.4323 48.4732C71.0679 48.4732 67.2913 46.306 67.2913 38.7743V37.3152H91.56V31.4573C91.4098 20.8786 85.1012 15.9434 76.4109 15.9434C67.1411 15.9434 61.1115 21.5867 61.1115 31.4573V38.7743C61.1115 48.6234 67.1197 54.2883 76.3894 54.2883L76.4323 54.2668ZM67.3128 31.8864V31.4573C67.3128 24.0758 71.0893 21.6082 76.4538 21.6082C81.3032 21.6082 85.2943 24.0758 85.4445 31.4573V31.8864H67.3342H67.3128Z" fill="#050A0D"/>
<path d="M98.7916 53.6231H104.886V16.5871H98.7916V53.6231ZM98.4268 8.90523H105.229V1.80273H98.4268V8.90523Z" fill="#050A0D"/>
<path d="M127.824 47.8288V53.6224H122.33C115.013 53.6224 112.46 49.4811 112.46 44.417V8.3252H118.618V16.5864H127.695V22.38H118.618V47.8288H127.824Z" fill="#050A0D"/>
<path d="M134.39 31.4573V38.7743C134.39 48.6234 140.398 54.2883 149.689 54.2883C158.98 54.2883 164.902 48.6449 164.902 38.7743V31.4573C164.902 21.6082 158.959 15.9434 149.689 15.9434C140.419 15.9434 134.39 21.5867 134.39 31.4573ZM140.548 38.7743V31.4573C140.548 24.6552 144.325 21.7584 149.689 21.7584C155.053 21.7584 158.744 24.6552 158.744 31.4573V38.7743C158.744 46.306 155.053 48.4732 149.689 48.4732C144.325 48.4732 140.548 46.306 140.548 38.7743Z" fill="#050A0D"/>
<path d="M171.447 53.6231H177.606V31.3071C177.606 24.4192 181.725 21.7369 186.661 21.7369C192.54 21.7369 195.501 25.0629 195.501 31.3071V53.6231H201.66V29.9338C201.66 21.458 196.231 15.9434 188.034 15.9434C183.099 15.9434 179.558 17.6171 177.606 20.3636V16.5871H171.447V53.6231Z" fill="#050A0D"/>
<path d="M258.888 53.6225H265.926L250.283 2.89648H238.546L222.753 53.6225H229.791L233.696 40.5118H255.004L258.909 53.6225H258.888ZM235.413 34.7183L244.318 4.72039L253.223 34.7183H235.391H235.413Z" fill="#050A0D"/>
<path d="M276.89 53.6229H288.048L300.086 16.5869H293.348L282.469 51.799L271.59 16.5869H264.852L276.869 53.6229H276.89Z" fill="#050A0D"/>
<path d="M306.631 53.6221H312.725V16.5861H306.631V53.6221ZM306.287 8.90426H313.089V1.80176H306.287V8.90426Z" fill="#050A0D"/>
</svg>
